<svg xmlns="http://www.w3.org/2000/svg" width="22" height="22" viewBox="0 0 22 22"><path fill="#34495e" d="M21.74 3.51a.8.8 0 0 1 0 1.14l-6.27 6.27a.81.81 0 0 0 0 1.14l6.27 6.28a.8.8 0 0 1 0 1.13l-2.28 2.28a.81.81 0 0 1-1.14 0l-6.28-6.27a.8.8 0 0 0-1.14 0l-6.27 6.27a.8.8 0 0 1-1.14 0L1.2 19.47a.81.81 0 0 1 0-1.14l6.28-6.27a.8.8 0 0 0 0-1.14L1.21 4.65a.81.81 0 0 1 0-1.14l2.28-2.28a.82.82 0 0 1 1.15 0l6.27 6.27a.8.8 0 0 0 1.14 0l6.27-6.26a.8.8 0 0 1 1.14 0z"/><path fill="#d0d0d0" d="M21.74 3.51a.8.8 0 0 1 0 1.14l-6.27 6.27a.81.81 0 0 0 0 1.14l6.27 6.28a.8.8 0 0 1 0 1.13l-2.28 2.28a.81.81 0 0 1-1.14 0l-6.28-6.27a.8.8 0 0 0-1.14 0l-6.27 6.27a.8.8 0 0 1-1.14 0L1.2 19.47a.81.81 0 0 1 0-1.14l6.28-6.27a.8.8 0 0 0 0-1.14L1.21 4.65a.81.81 0 0 1 0-1.14l2.28-2.28a.82.82 0 0 1 1.15 0l6.27 6.27a.8.8 0 0 0 1.14 0l6.27-6.26a.8.8 0 0 1 1.14 0z"/></svg>